<svg width="32" height="32" viewBox="0 0 32 32" fill="none" xmlns="http://www.w3.org/2000/svg">
<g clip-path="url(#clip0_1862_1655)">
<path fill-rule="evenodd" clip-rule="evenodd" d="M5 14C5 9.02944 9.02944 5 14 5C18.9706 5 23 9.02944 23 14C23 18.9706 18.9706 23 14 23C9.02944 23 5 18.9706 5 14ZM14 3C7.92487 3 3 7.92487 3 14C3 20.0751 7.92487 25 14 25C16.6775 25 19.1316 24.0434 21.0391 22.4533L27.2929 28.7071C27.6835 29.0977 28.3166 29.0977 28.7071 28.7071C29.0977 28.3166 29.0977 27.6835 28.7071 27.2929L22.4533 21.0391C24.0434 19.1316 25 16.6775 25 14C25 7.92487 20.0751 3 14 3Z" fill="#D9D9D9"/>
</g>
<defs>
<clipPath id="clip0_1862_1655">
<rect width="32" height="32" fill="white"/>
</clipPath>
</defs>
</svg>
